<?xml version="1.0" encoding="UTF-8" standalone="no"?>
<svg
   version="1.1"
   width="2492.7249"
   height="717.2973"
   id="svg12"
   viewBox="0 0 2492.7249 717.2973"
   sodipodi:docname="dcbc20fe9e49884fcaf488e1d9c0fdd1.cdr"
   xmlns:inkscape="http://www.inkscape.org/namespaces/inkscape"
   xmlns:sodipodi="http://sodipodi.sourceforge.net/DTD/sodipodi-0.dtd"
   xmlns="http://www.w3.org/2000/svg"
   xmlns:svg="http://www.w3.org/2000/svg">
  <defs
     id="defs16" />
  <sodipodi:namedview
     id="namedview14"
     pagecolor="#ffffff"
     bordercolor="#666666"
     borderopacity="1.0"
     inkscape:pageshadow="2"
     inkscape:pageopacity="0.0"
     inkscape:pagecheckerboard="0" />
  <path
     d="m 335.6728,0 c 76.7051,0 147.3851,25.7479 203.9128,69.0441 -57.6838,7.4891 -109.8584,30.5377 -153.5868,72.8249 -54.7833,52.9778 -78.4813,120.2209 -78.4813,195.6183 0,75.8047 24.3225,142.9687 79.7981,195.7473 42.7035,40.6265 93.1155,63.4806 148.6771,71.8022 -55.9146,41.6514 -125.237,66.3088 -200.3199,66.3088 C 150.2857,671.3456 0,521.0598 0,335.6728 0,150.2857 150.2857,0 335.6728,0 Z m 301.6439,188.2786 c 21.7884,44.4909 34.0289,94.5115 34.0289,147.3942 0,51.808 -11.745,100.8715 -32.7053,144.6814 -14.4011,3.8757 -29.3861,5.9935 -44.9728,5.9935 -42.1175,0 -78.108,-13.9645 -108.7316,-42.9637 -30.1056,-28.5105 -44.8484,-62.8674 -44.8484,-104.3242 0,-42.9591 12.3535,-81.142 42.1876,-112.673 29.5603,-31.2414 66.5463,-44.0542 109.0326,-44.0542 15.8673,0 31.2074,2.1109 46.009,5.946 z"
     style="fill:#1100a6;fill-rule:evenodd"
     id="path2" />
  <path
     d="m 769.9704,514.7428 -40.2102,-50.6134 c -40.0133,30.0852 -85.3526,49.369 -136.0927,49.369 -49.0952,0 -91.7331,-16.6276 -127.4,-50.403 -35.5289,-33.6442 -53.3307,-75.1078 -53.3307,-124.0356 0,-50.0477 15.0415,-94.7898 49.6156,-131.3323 34.6556,-36.6263 78.6464,-52.5456 128.7553,-52.5456 54.1882,0 102.9395,21.2635 145.842,52.9868 l 31.4609,-51.2944 C 713.9653,115.2455 652.4464,93.4345 583.4407,93.4345 c -68.2454,0 -129.1919,20.2001 -178.5677,67.9513 -49.3576,47.7332 -70.2048,107.9307 -70.2048,176.1015 0,68.5034 21.4015,128.5449 71.361,176.0744 50.1654,47.7264 111.7386,67.9785 180.5588,67.9785 69.5826,0 131.3594,-20.8789 183.3824,-66.7974 z"
     style="fill:#e30008;fill-rule:evenodd"
     id="path4" />
  <path
     d="m 1130.9431,578.1984 h -64.5055 v -17.3063 c -27.2683,16.2565 -70.0103,24.3858 -128.2213,24.3858 -39.3323,0 -72.1077,-9.9643 -98.3307,-29.8928 -28.3181,-21.5011 -42.4772,-51.394 -42.4772,-89.6765 0,-44.0519 18.6163,-76.8273 55.8512,-98.3284 30.4155,-17.8312 69.2229,-26.7456 116.4221,-26.7456 h 13.3739 c 20.9762,0 47.4594,4.1947 79.4497,12.5843 0,-27.2683 -2.6223,-46.4118 -7.8669,-57.4237 -7.342,-15.7338 -22.5509,-26.4832 -45.6245,-32.2527 -11.0141,-2.6223 -23.5984,-3.9323 -37.7598,-3.9323 -31.4653,0 -69.2229,9.1769 -113.2748,27.533 v -63.7181 c 33.0378,-13.1115 72.3701,-19.6661 117.9945,-19.6661 103.3129,0 154.9693,42.7397 154.9693,128.2213 z m -68.4378,-73.1575 v -92.8236 c -24.6483,-8.3896 -57.1635,-12.5866 -97.5433,-12.5866 -63.4557,0 -95.1835,22.026 -95.1835,66.0779 0,40.3821 35.4,60.5709 106.1953,60.5709 30.9428,0 59.7858,-7.0795 86.5315,-21.2386 z m 197.4465,73.1575 H 1191.514 V 102.2811 h 68.4378 z m 134.5157,-404.3323 h -68.4378 v -61.3583 h 68.4378 z m 0,404.3323 h -68.4378 v -365 h 68.4378 z m 398.8253,0 h -68.4378 v -21.2386 c -26.352,15.7315 -58.3423,23.5985 -96.2311,23.5985 -53.0976,0 -100.6905,-18.0937 -142.7763,-54.2788 -35.2665,-30.4155 -52.8352,-75.5173 -52.8352,-135.3008 0,-57.1635 18.4851,-102.9192 55.5887,-137.2693 37.1037,-34.3501 84.5653,-51.5252 142.3827,-51.5252 36.3163,0 67.5192,7.342 93.8712,22.026 V 102.2811 h 68.4378 z m -68.4378,-81.8095 v -201.381 c -18.8788,-23.0736 -49.688,-34.6126 -92.43,-34.6126 -37.3638,0 -67.7816,13.6364 -91.5113,40.907 -20.5847,24.1234 -30.8115,54.0162 -30.8115,89.6764 0,39.8572 11.539,71.8452 34.7438,95.9686 23.207,24.1256 54.5412,36.1873 94.0047,36.1873 35.2664,0 63.847,-8.9168 86.0043,-26.7457 z m 507.3827,-103.8377 c 0,56.6385 -18.6186,103.1816 -55.8512,139.6291 -37.2349,36.4475 -84.1716,54.6701 -140.8102,54.6701 l -0.7851,1.5748 c -57.6884,-0.525 -105.1478,-18.8788 -142.3827,-55.0661 -37.2326,-36.1851 -55.8512,-83.1195 -55.8512,-140.8079 l 0.7874,-0.7851 c 0,-56.6386 18.8788,-102.5255 56.6386,-137.663 36.7099,-33.5627 83.6444,-50.3441 140.8079,-50.3441 56.6385,0 103.7042,17.4375 141.2016,52.3103 37.495,34.875 56.2449,80.3682 56.2449,136.4819 z m -76.3047,5.507 c 0,-38.2824 -11.0119,-70.1415 -33.0379,-95.5771 -22.026,-25.4334 -51.9189,-38.1512 -89.6787,-38.1512 -36.7077,0 -66.3381,13.3717 -88.889,40.1173 -20.9761,24.6483 -31.4654,55.8512 -31.4654,93.611 0,36.1851 11.2744,67.1255 33.8253,92.8236 22.5508,25.6959 51.6564,38.5449 87.3165,38.5449 36.1851,0 65.8155,-13.1115 88.8913,-39.3322 22.026,-24.6483 33.0379,-55.3263 33.0379,-92.0363 z"
     style="fill:#1100a6;fill-rule:evenodd"
     id="path6" />
  <path
     d="m 848.0538,669.0821 c 0,1.7999 -0.2251,3.5839 -0.6751,5.3519 -0.45,1.7678 -1.1411,3.4071 -2.0734,4.9179 -0.9321,1.5108 -2.1052,2.8607 -3.5196,4.0501 -1.4142,1.1893 -3.0859,2.1054 -5.0143,2.7484 v 0.096 c 2.7644,0.8999 4.7573,2.4107 5.9787,4.5321 1.2215,2.1214 2.1857,4.468 2.8929,7.0396 l 5.3036,18.5146 h -14.1752 c -0.8357,-2.8929 -1.6716,-5.7698 -2.5074,-8.6305 -0.8357,-2.8608 -1.6714,-5.7698 -2.5071,-8.7269 -1.0285,-3.6646 -2.4591,-6.1396 -4.2911,-7.4253 -1.8323,-1.2857 -4.0984,-1.9287 -6.7985,-1.9287 h -7.1357 v 26.7114 h -14.0791 v -66.248 h 26.9044 c 3.7928,0 7.0555,0.4983 9.7877,1.4948 2.732,0.9964 4.9822,2.3625 6.75,4.0982 1.768,1.7359 3.0699,3.7609 3.9056,6.0753 0.8357,2.3142 1.2536,4.757 1.2536,7.3287 z m -24.397,10.8002 c 1.1571,0 2.3143,-0.1608 3.4715,-0.4821 1.157,-0.3215 2.2178,-0.8679 3.1821,-1.6234 0.9644,-0.7714 1.7518,-1.7999 2.3626,-3.0696 0.6107,-1.2857 0.9162,-2.8929 0.9162,-4.8056 0,-3.3267 -0.9323,-5.7696 -2.7965,-7.3446 -1.8644,-1.5591 -4.2752,-2.3465 -7.2323,-2.3465 h -10.0288 v 19.6718 z m 192.9579,36.4508 -4.6286,-15.1397 h -24.2042 l -4.7251,15.1397 h -14.1753 l 22.5647,-66.248 h 17.9362 l 21.8898,66.248 z m -12.4396,-42.2368 -3.8573,-14.368 h -0.4821 l -4.05,14.8504 -4.918,16.9717 h 18.2253 z m 148.4072,42.2368 v -66.3444 h 24.8791 c 5.85,0 10.6877,0.884 14.5129,2.6518 3.825,1.768 6.8466,4.1467 9.0644,7.1359 2.218,2.9895 3.7609,6.493 4.6287,10.5109 0.8679,4.018 1.3019,8.245 1.3019,12.6808 0,4.4358 -0.4983,8.6787 -1.4948,12.7287 -0.9964,4.0503 -2.6519,7.6021 -4.9662,10.6558 -2.3142,3.0535 -5.4001,5.4805 -9.2574,7.2804 -3.8571,1.8001 -8.6465,2.7001 -14.3682,2.7001 z m 14.3682,-56.2192 v 46.094 h 8.775 c 1.6717,0 3.4716,-0.2731 5.4003,-0.8197 1.9286,-0.5464 3.7126,-1.6393 5.3519,-3.2786 1.6393,-1.6393 3.0054,-3.9375 4.0984,-6.8949 1.0927,-2.9571 1.6393,-6.8465 1.6393,-11.6681 0,-4.8857 -0.5145,-8.8556 -1.543,-11.9091 -1.0286,-3.0537 -2.3305,-5.4324 -3.9054,-7.1359 -1.575,-1.7036 -3.343,-2.8608 -5.3038,-3.4716 -1.9608,-0.6106 -3.8733,-0.9161 -5.7377,-0.9161 z m 166.3432,56.2192 v -66.3444 h 14.0788 v 66.3444 z m 183.797,0 -4.6286,-15.1397 h -24.2042 l -4.7252,15.1397 h -14.1752 l 22.5647,-66.248 h 17.9362 l 21.8898,66.248 z m -12.4396,-42.2368 -3.8573,-14.368 h -0.4821 l -4.0501,14.8504 -4.9179,16.9717 h 18.2253 z m 163.7396,42.2368 v -56.0263 h -21.022 v -10.3181 h 56.1229 v 10.3181 h -20.9256 l -0.096,56.0263 z m 216.7765,-33.1722 c 0,4.8858 -0.6428,9.402 -1.9287,13.5485 -1.2857,4.1466 -3.2144,7.7467 -5.7858,10.8002 -2.5714,3.0537 -5.7697,5.4485 -9.5949,7.1842 -3.825,1.7357 -8.277,2.6035 -13.3555,2.6035 -5.4002,0 -10.0611,-0.8195 -13.9825,-2.4588 -3.9215,-1.6393 -7.1521,-3.9537 -9.6913,-6.9432 -2.5393,-2.9892 -4.4199,-6.5572 -5.6413,-10.7036 -1.2215,-4.1467 -1.8321,-8.7593 -1.8321,-13.8378 0,-4.7573 0.5947,-9.2252 1.784,-13.404 1.1893,-4.1786 3.0376,-7.8431 5.5447,-10.993 2.5071,-3.1501 5.7215,-5.6251 9.6431,-7.4253 3.9215,-1.7999 8.6467,-2.7001 14.1754,-2.7001 5.5285,0 10.2377,0.9161 14.1269,2.7484 3.8895,1.8321 7.0557,4.3071 9.4986,7.4251 2.4429,3.1179 4.2269,6.7502 5.352,10.8966 1.1248,4.1467 1.6874,8.5663 1.6874,13.2593 z m -15.1397,0.193 c 0,-3.0216 -0.2089,-5.9949 -0.6268,-8.9199 -0.4179,-2.9252 -1.1893,-5.5287 -2.3142,-7.811 -1.125,-2.2821 -2.7001,-4.1305 -4.7251,-5.5447 -2.0251,-1.4144 -4.6448,-2.1214 -7.8591,-2.1214 -3.2788,0 -5.9628,0.691 -8.0521,2.0731 -2.0892,1.3823 -3.7447,3.1984 -4.9662,5.4483 -1.2214,2.2501 -2.0571,4.8539 -2.5071,7.811 -0.45,2.9571 -0.6751,6.0109 -0.6751,9.161 0,7.5216 1.2055,13.3235 3.6163,17.4057 2.4107,4.0822 6.6055,6.1234 12.5842,6.1234 2.7644,0 5.1428,-0.5947 7.1357,-1.784 1.9929,-1.1893 3.6001,-2.8448 4.8217,-4.9662 1.2215,-2.1216 2.1214,-4.6126 2.6999,-7.4733 0.5787,-2.861 0.8679,-5.9949 0.8679,-9.402 z m 189.101,-14.2718 c 0,1.7999 -0.2251,3.5839 -0.6751,5.3519 -0.4499,1.7678 -1.141,3.4071 -2.0733,4.9179 -0.9321,1.5108 -2.1052,2.8607 -3.5196,4.0501 -1.4143,1.1893 -3.0859,2.1054 -5.0143,2.7484 v 0.096 c 2.7643,0.8999 4.7572,2.4107 5.9787,4.5321 1.2214,2.1214 2.1856,4.468 2.8929,7.0396 l 5.3036,18.5146 h -14.1752 c -0.8358,-2.8929 -1.6717,-5.7698 -2.5074,-8.6305 -0.8357,-2.8608 -1.6714,-5.7698 -2.5071,-8.7269 -1.0285,-3.6646 -2.4591,-6.1396 -4.2912,-7.4253 -1.8322,-1.2857 -4.0983,-1.9287 -6.7984,-1.9287 h -7.1357 v 26.7114 h -14.0791 v -66.248 h 26.9043 c 3.7929,0 7.0555,0.4983 9.7878,1.4948 2.732,0.9964 4.9821,2.3625 6.75,4.0982 1.768,1.7359 3.0698,3.7609 3.9055,6.0753 0.8358,2.3142 1.2536,4.757 1.2536,7.3287 z m -24.397,10.8002 c 1.1572,0 2.3144,-0.1608 3.4716,-0.4821 1.157,-0.3215 2.2178,-0.8679 3.182,-1.6234 0.9645,-0.7714 1.7519,-1.7999 2.3627,-3.0696 0.6106,-1.2857 0.9161,-2.8929 0.9161,-4.8056 0,-3.3267 -0.9323,-5.7696 -2.7965,-7.3446 -1.8644,-1.5591 -4.2751,-2.3465 -7.2323,-2.3465 h -10.0287 v 19.6718 z m 175.3112,-31.1472 c 3.2786,0 6.7823,0.3375 10.5109,1.0125 3.7287,0.6751 7.2322,1.9125 10.5111,3.7127 l -3.6644,9.643 c -3.2788,-1.3499 -6.477,-2.2339 -9.595,-2.6518 -3.1179,-0.4178 -5.8661,-0.6268 -8.2448,-0.6268 -3.0216,0 -5.4002,0.7072 -7.1359,2.1214 -1.7357,1.4145 -2.6035,3.5359 -2.6035,6.3645 0,1.2857 0.3696,2.3625 1.1089,3.2305 0.7393,0.8679 1.7197,1.6231 2.9412,2.2661 1.2214,0.6427 2.6197,1.1893 4.1947,1.6393 1.5751,0.45 3.2303,0.8678 4.9662,1.2536 2.2499,0.5785 4.6769,1.2535 7.2804,2.025 2.6037,0.7715 5.0145,1.8965 7.2323,3.375 2.218,1.4787 4.0501,3.4394 5.4966,5.8823 1.4465,2.4429 2.1697,5.6252 2.1697,9.5467 0,6.3002 -2.3144,11.1698 -6.9429,14.6093 -4.6288,3.4394 -11.6039,5.1589 -20.9257,5.1589 -1.6714,0 -3.5196,-0.096 -5.5447,-0.2891 -2.025,-0.193 -4.0983,-0.4983 -6.2197,-0.9161 -2.1215,-0.4179 -4.2431,-0.9645 -6.3645,-1.6393 -2.1214,-0.6751 -4.1464,-1.4947 -6.0751,-2.4591 l 3.6643,-10.0288 c 4.6931,1.8644 8.9038,3.0537 12.6326,3.568 3.7286,0.5142 6.7178,0.7714 8.9679,0.7714 3.9216,0 6.8787,-0.6589 8.8716,-1.9769 1.9929,-1.3178 2.9895,-3.5839 2.9895,-6.7983 0,-1.4144 -0.2572,-2.5876 -0.7715,-3.5197 -0.5144,-0.9323 -1.2535,-1.7358 -2.218,-2.4107 -0.9642,-0.6751 -2.1214,-1.2376 -3.4713,-1.6876 -1.3502,-0.45 -2.8289,-0.9 -4.436,-1.35 -3.2786,-0.8357 -6.3966,-1.6876 -9.3537,-2.5554 -2.9572,-0.8678 -5.5609,-2.0091 -7.8108,-3.4233 -2.2502,-1.4144 -4.0341,-3.1984 -5.352,-5.3519 -1.318,-2.1538 -1.9769,-4.9341 -1.9769,-8.3414 0,-6.043 2.1055,-10.9126 6.3164,-14.6093 4.2107,-3.6964 10.4947,-5.5447 18.8521,-5.5447 z"
     style="fill:#1100a6;fill-rule:evenodd"
     id="path8" />
  <path
     d="m 2365.0896,15.5986 c 21.4288,0 42.3485,5.4908 62.8084,16.463 20.3979,11.0342 36.3392,26.7488 47.7211,47.2617 11.3822,20.4629 17.1058,41.8391 17.1058,64.0818 0,22.0064 -5.6054,43.1621 -16.8698,63.4386 -11.2111,20.3418 -26.9845,36.1155 -47.2088,47.3266 -20.2797,11.2644 -41.4322,16.8701 -63.5567,16.8701 -22.1372,0 -43.3333,-5.6057 -63.5568,-16.8701 -20.2892,-11.2111 -36.0596,-26.9848 -47.3237,-47.3266 -11.3203,-20.2765 -16.9256,-41.4322 -16.9256,-63.4386 0,-22.2427 5.7109,-43.6189 17.1584,-64.0818 11.4348,-20.5129 27.3916,-36.2275 47.8392,-47.2617 20.3915,-10.9722 41.3642,-16.463 62.8085,-16.463 z m 0,21.1435 c -17.9724,0 -35.4165,4.6239 -52.4077,13.8042 -16.9876,9.1959 -30.2705,22.3606 -39.8764,39.4134 -9.5839,17.0968 -14.379,34.8984 -14.379,53.4454 0,18.3788 4.7392,35.9973 14.1585,52.8671 9.4196,16.8698 22.5966,30.0467 39.5193,39.4663 16.9228,9.4197 34.5535,14.1495 52.9853,14.1495 18.3758,0 36.0502,-4.7298 52.9852,-14.1495 16.9228,-9.4196 30.0345,-22.5965 39.4015,-39.4663 9.3663,-16.8698 14.0403,-34.4883 14.0403,-52.8671 0,-18.547 -4.7392,-36.3486 -14.2767,-53.4454 -9.5219,-17.0528 -22.8203,-30.2175 -39.8576,-39.4134 -17.0438,-9.1803 -34.507,-13.8042 -52.2927,-13.8042 z m -56.0508,177.2134 V 76.5468 h 47.2091 c 16.1772,0 27.8481,1.2204 35.0655,3.7577 7.23,2.5467 12.9413,6.9969 17.2769,13.2983 4.2827,6.3541 6.419,13.0469 6.419,20.162 0,10.0559 -3.5898,18.7827 -10.7546,26.2332 -7.1493,7.4534 -16.6896,11.6089 -28.5406,12.5374 4.857,2.0188 8.7887,4.4408 11.6708,7.283 5.5528,5.4223 12.3108,14.5 20.3421,27.2705 l 16.7549,26.8666 h -27.0904 l -12.1962,-21.6648 c -9.5868,-16.9908 -17.2766,-27.6773 -23.1709,-31.9603 -4.0499,-3.1708 -9.994,-4.7298 -17.8016,-4.7298 h -12.9939 v 58.3549 z m 22.1901,-77.3084 h 26.9319 c 12.8235,0 21.5999,-1.9659 26.2894,-5.7765 4.6739,-3.8139 7.0466,-8.9102 7.0466,-15.261 0,-4.0499 -1.1678,-7.6772 -3.4194,-10.9135 -2.2516,-3.1801 -5.3726,-5.6057 -9.3508,-7.1648 -4.0466,-1.6243 -11.4474,-2.3694 -22.3112,-2.3694 h -25.1865 z"
     style="fill:#1100a6;fill-rule:evenodd"
     id="path10" />
</svg>
