<svg width="51" height="50" viewBox="0 0 51 50" fill="none" xmlns="http://www.w3.org/2000/svg">
<path d="M50.0474 25.1549C50.0474 11.2584 38.8489 0 25.0474 0C11.2364 0 0.0473633 11.2584 0.0473633 25.1549C0.0473633 37.7071 9.18643 48.115 21.1411 50V32.4278H14.7927V25.1564H21.1411V19.6114C21.1411 13.3085 24.8677 9.82769 30.5802 9.82769C33.3161 9.82769 36.1802 10.3182 36.1802 10.3182V16.5079H33.0224C29.9224 16.5079 28.9536 18.4495 28.9536 20.4383V25.1549H35.8864L34.7724 32.4262H28.9536V49.9984C40.8989 48.1134 50.0474 37.7056 50.0474 25.1533V25.1549Z" fill="#6ED0FF"/>
</svg>
