<svg width="51" height="50" viewBox="0 0 51 50" fill="none" xmlns="http://www.w3.org/2000/svg">
<path fill-rule="evenodd" clip-rule="evenodd" d="M25.0474 50C38.8545 50 50.0474 38.8071 50.0474 25C50.0474 11.1929 38.8545 0 25.0474 0C11.2402 0 0.0473633 11.1929 0.0473633 25C0.0473633 38.8071 11.2402 50 25.0474 50ZM19.3695 10.5769H31.2367C33.5555 10.5793 35.7787 11.503 37.4184 13.1454C39.0582 14.7878 39.9807 17.0148 39.9834 19.3377V31.226C39.981 33.5489 39.059 35.7761 37.4195 37.4187C35.78 39.0614 33.5569 39.9855 31.2382 39.9883H19.371C17.0522 39.9859 14.829 39.0622 13.1893 37.4198C11.5495 35.7774 10.627 33.5504 10.6243 31.2275V19.3392C10.6266 17.0163 11.5487 14.7891 13.1882 13.1465C14.8277 11.5038 17.0507 10.5797 19.3695 10.5769ZM36.5895 33.4472C36.8807 32.743 37.0306 31.9882 37.0306 31.226V19.3392C37.0306 17.8001 36.4203 16.324 35.3341 15.2355C34.2478 14.1471 32.7745 13.5354 31.2382 13.535H19.371C17.8346 13.535 16.3612 14.1463 15.2746 15.2345C14.1881 16.3227 13.5775 17.7986 13.5771 19.3377V31.226C13.5771 32.7651 14.1873 34.2412 15.2736 35.3297C16.3598 36.4181 17.8332 37.0298 19.3695 37.0302H31.2367C31.9975 37.0302 32.751 36.8801 33.4539 36.5884C34.1568 36.2967 34.7956 35.8691 35.3336 35.3302C35.8716 34.7912 36.2984 34.1514 36.5895 33.4472ZM25.3022 17.6788C23.2897 17.6819 21.3605 18.4843 19.9376 19.9102C18.5146 21.336 17.7141 23.2689 17.7113 25.2851C17.7137 27.3019 18.5143 29.2353 19.9376 30.6615C21.3609 32.0877 23.2907 32.8902 25.3037 32.8929C27.317 32.8906 29.2471 32.0883 30.6708 30.6621C32.0944 29.2358 32.8952 27.3021 32.8975 25.2851C32.8944 23.2684 32.093 21.3352 30.6692 19.9096C29.2453 18.4839 27.3153 17.6822 25.3022 17.6803V17.6788ZM25.3022 29.9346C24.0717 29.9346 22.8917 29.4449 22.0216 28.5733C21.1515 27.7016 20.6627 26.5193 20.6627 25.2866C20.6627 24.0538 21.1515 22.8716 22.0216 21.9999C22.8917 21.1282 24.0717 20.6385 25.3022 20.6385C26.5327 20.6385 27.7128 21.1282 28.5829 21.9999C29.4529 22.8716 29.9417 24.0538 29.9417 25.2866C29.9417 26.5193 29.4529 27.7016 28.5829 28.5733C27.7128 29.4449 26.5327 29.9346 25.3022 29.9346ZM34.7313 17.7337C34.7313 18.7405 33.9169 19.5567 32.9123 19.5567C31.9076 19.5567 31.0932 18.7405 31.0932 17.7337C31.0932 16.7269 31.9076 15.9106 32.9123 15.9106C33.9169 15.9106 34.7313 16.7269 34.7313 17.7337Z" fill="#6ED0FF"/>
</svg>
