<svg width="51" height="50" viewBox="0 0 51 50" fill="none" xmlns="http://www.w3.org/2000/svg">
<path fill-rule="evenodd" clip-rule="evenodd" d="M25.0474 50C38.8545 50 50.0474 38.8071 50.0474 25C50.0474 11.1929 38.8545 0 25.0474 0C11.2402 0 0.0473633 11.1929 0.0473633 25C0.0473633 38.8071 11.2402 50 25.0474 50ZM11.3825 22.9334L36.7111 13.1693C37.8668 12.6466 38.9839 13.4477 38.5425 15.2172L34.2297 35.5368C33.9282 36.982 33.0582 37.3248 31.8468 36.6579L25.2768 31.8065L22.1182 34.877C22.1065 34.8883 22.0947 34.8997 22.0831 34.9109C21.7307 35.2515 21.4387 35.5339 20.8025 35.5339L21.2511 28.8331L21.2482 28.8317H21.2511L33.4411 17.8336C33.9754 17.3594 33.3254 17.1266 32.6139 17.5594L17.5682 27.0493L11.0654 25.0214C9.66397 24.5915 9.65397 23.6275 11.3825 22.9334Z" fill="#6ED0FF"/>
</svg>
