<svg width="23" height="23" viewBox="0 0 23 23" fill="none" xmlns="http://www.w3.org/2000/svg">
<path d="M21.0473 16.42V19.42C21.0484 19.6985 20.9914 19.9741 20.8798 20.2293C20.7682 20.4845 20.6046 20.7136 20.3994 20.9018C20.1942 21.0901 19.9519 21.2335 19.688 21.3227C19.4242 21.4119 19.1447 21.445 18.8673 21.42C15.7901 21.0856 12.8343 20.0341 10.2373 18.35C7.82112 16.8146 5.77263 14.7661 4.2373 12.35C2.54727 9.74118 1.49554 6.77097 1.1673 3.67997C1.14231 3.40344 1.17517 3.12474 1.2638 2.8616C1.35242 2.59846 1.49487 2.35666 1.68206 2.1516C1.86926 1.94653 2.0971 1.78268 2.35109 1.6705C2.60507 1.55831 2.87964 1.50024 3.1573 1.49997H6.1573C6.6426 1.4952 7.11309 1.66705 7.48106 1.98351C7.84903 2.29996 8.08937 2.73942 8.1573 3.21997C8.28392 4.18004 8.51875 5.1227 8.8573 6.02997C8.99184 6.3879 9.02096 6.77689 8.9412 7.15086C8.86145 7.52482 8.67616 7.86809 8.4073 8.13998L7.1373 9.40997C8.56085 11.9135 10.6338 13.9864 13.1373 15.41L14.4073 14.14C14.6792 13.8711 15.0225 13.6858 15.3964 13.6061C15.7704 13.5263 16.1594 13.5554 16.5173 13.69C17.4246 14.0285 18.3672 14.2634 19.3273 14.39C19.8131 14.4585 20.2567 14.7032 20.5738 15.0775C20.891 15.4518 21.0595 15.9296 21.0473 16.42Z" stroke="#1C1D3D" stroke-width="2" stroke-linecap="round" stroke-linejoin="round"/>
</svg>
